<svg xmlns="http://www.w3.org/2000/svg" viewBox="0 0 64 64">
  <defs>
    <linearGradient id="egd" x1="0%" y1="0%" x2="100%" y2="100%">
      <stop offset="0%" stop-color="#6ee7b7"/>
      <stop offset="50%" stop-color="#10b981"/>
      <stop offset="100%" stop-color="#064e3b"/>
    </linearGradient>
    <linearGradient id="egs" x1="0%" y1="0%" x2="50%" y2="100%">
      <stop offset="0%" stop-color="#d1fae5"/>
      <stop offset="100%" stop-color="#34d399"/>
    </linearGradient>
  </defs>
  <ellipse cx="32" cy="58" rx="16" ry="4" fill="rgba(16,185,129,0.18)"/>
  <polygon points="32,4 54,22 48,52 16,52 10,22" fill="url(#egd)" stroke="#022c22" stroke-width="2.5" stroke-linejoin="round"/>
  <polygon points="10,22 32,4 32,28 16,52" fill="url(#egs)" opacity="0.3"/>
  <polygon points="32,4 54,22 32,28 10,22" fill="white" opacity="0.18"/>
  <polyline points="10,22 32,28 54,22" fill="none" stroke="#059669" stroke-width="1.2" opacity="0.5"/>
  <line x1="32" y1="28" x2="16" y2="52" stroke="#059669" stroke-width="1" opacity="0.4"/>
  <line x1="32" y1="28" x2="48" y2="52" stroke="#059669" stroke-width="1" opacity="0.4"/>
  <polygon points="22,14 24,10 26,14 24,16" fill="white" opacity="0.7"/>
  <polygon points="40,18 42,15 44,18 42,20" fill="white" opacity="0.5"/>
  <circle cx="18" cy="22" r="1.5" fill="white" opacity="0.6"/>
</svg>
